<svg xmlns="http://www.w3.org/2000/svg" viewBox="0 0 560.35 561.5">
    <path style="fill:#4b4b4b;" d="M327.64,30.07Q428.26,132.13,529.36,233.7c11.53,11.6,19.57,24.56,17.85,41.47-1.83,18.08-11.15,31.32-28.21,38.17-17.41,7-33.89,4.78-47.36-8.61q-66.48-66-132.27-132.79c-.25-.26-.53-.53-.83-.82a6.16,6.16,0,0,0-10.44,4.42v1.05q0,166.74,0,333.49c0,26.25-12.15,43.34-34.43,49.14A45.31,45.31,0,0,1,237,519.87c-.5-5-.36-10.16-.36-15.24q0-164.56,0-329.13v0a6.15,6.15,0,0,0-10.51-4.33h0Q162.24,236,98,300.37c-20.06,20.05-45,22-64.29,5.8a45.15,45.15,0,0,1-8.14-60.85A99.17,99.17,0,0,1,36.24,233Q136.67,131.54,237.1,30.08c12.59-12.77,25.18-27.95,44.37-27.93.6,0,1.2,0,1.8,0C302.57,2.63,315.05,17.3,327.64,30.07Z" transform="translate(-3.29 -2.14)"/>
</svg>